HIERARCHY
ROOT Hips
{
    OFFSET 0.000000 0.000000 0.000000
    CHANNELS 6 Xposition Yposition Zposition Zrotation Xrotation Yrotation
    JOINT Spine
    {
        OFFSET -0.000000 7.897928 0.000000
        CHANNELS 3 Zrotation Xrotation Yrotation
        JOINT Spine1
        {
            OFFSET -0.000000 22.881742 0.000000
            CHANNELS 3 Zrotation Xrotation Yrotation
            JOINT Neck
            {
                OFFSET -0.000000 22.787771 2.071616
                CHANNELS 3 Zrotation Xrotation Yrotation
                JOINT Head
                {
                    OFFSET -0.000000 13.484266 -1.926324
                    CHANNELS 3 Zrotation Xrotation Yrotation
                    End Site
                    {
                        OFFSET -0.000000 24.079046 0.000000
                    }
                }
            }
            JOINT LeftShoulder
            {
                OFFSET 3.854963 21.096247 -0.110468
                CHANNELS 3 Zrotation Xrotation Yrotation
                JOINT LeftArm
                {
                    OFFSET 10.572188 0.000000 0.000000
                    CHANNELS 3 Zrotation Xrotation Yrotation
                    JOINT LeftForeArm
                    {
                        OFFSET 34.932854 0.000000 0.000000
                        CHANNELS 3 Zrotation Xrotation Yrotation
                        JOINT LeftHand
                        {
                            OFFSET 23.279285 0.000000 0.000000
                            CHANNELS 3 Zrotation Xrotation Yrotation
                            End Site
                            {
                                OFFSET 14.447429 0.000000 0.000000
                            }
                        }
                    }
                }
            }
            JOINT RightShoulder
            {
                OFFSET -3.825334 21.096247 -0.110468
                CHANNELS 3 Zrotation Xrotation Yrotation
                JOINT RightArm
                {
                    OFFSET -10.572188 0.000000 0.000000
                    CHANNELS 3 Zrotation Xrotation Yrotation
                    JOINT RightForeArm
                    {
                        OFFSET -34.932854 0.000000 0.000000
                        CHANNELS 3 Zrotation Xrotation Yrotation
                        JOINT RightHand
                        {
                            OFFSET -23.279285 0.000000 0.000000
                            CHANNELS 3 Zrotation Xrotation Yrotation
                            End Site
                            {
                                OFFSET -14.447429 0.000000 0.000000
                            }
                        }
                    }
                }
            }
        }
    }
    JOINT LeftUpLeg
    {
        OFFSET 9.631618 0.000000 0.000000
        CHANNELS 3 Zrotation Xrotation Yrotation
        JOINT LeftLeg
        {
            OFFSET -0.000000 -35.385456 0.000000
            CHANNELS 3 Zrotation Xrotation Yrotation
            JOINT LeftFoot
            {
                OFFSET -0.000000 -43.284000 0.000000
                CHANNELS 3 Zrotation Xrotation Yrotation
                JOINT LeftToeBase
                {
                    OFFSET -0.000000 -6.260552 14.447429
                    CHANNELS 3 Zrotation Xrotation Yrotation
                    End Site
                    {
                        OFFSET -0.000000 0.000000 3.852648
                    }
                }
            }
        }
    }
    JOINT RightUpLeg
    {
        OFFSET -9.631618 0.000000 0.000000
        CHANNELS 3 Zrotation Xrotation Yrotation
        JOINT RightLeg
        {
            OFFSET -0.000000 -35.385456 0.000000
            CHANNELS 3 Zrotation Xrotation Yrotation
            JOINT RightFoot
            {
                OFFSET -0.000000 -43.284000 0.000000
                CHANNELS 3 Zrotation Xrotation Yrotation
                JOINT RightToeBase
                {
                    OFFSET -0.000000 -6.260552 14.447429
                    CHANNELS 3 Zrotation Xrotation Yrotation
                    End Site
                    {
                        OFFSET -0.000000 0.000000 3.852648
                    }
                }
            }
        }
    }
}
MOTION
Frames:    8
Frame Time:    0.008333
55.955208    87.738930    19.396366    0.563791    0.396908    87.136856    0.596280    0.144477    -0.817801    -2.196020    -4.698717    -0.907170    0.303067    13.621937    -5.598525    2.484797    7.772891    -5.650144    16.140945    0.759443    5.789933    -19.636097    2.800065    -9.037106    1.879186    -3.419238    0.088022    -0.986233    -3.440551    2.311189    -12.746326    0.260293    9.486158    16.769102    1.163016    0.204914    -1.192012    0.350829    0.013272    -2.922694    0.280520    2.763237    7.170360    5.274662    0.836662    -3.945925    4.363244    2.561978    -5.800570    -8.657384    13.817067    0.000000    0.000000    0.000000    -8.622019    0.657313    -1.107329    3.869938    8.165307    -1.628632    4.682055    -8.185886    -10.627919    0.000000    0.000000    0.000000    
55.951160    87.736473    19.398724    0.562503    0.399775    87.134239    0.586228    0.133018    -0.817731    -2.189258    -4.671107    -0.906411    0.291368    13.581045    -5.612451    2.488333    7.830380    -5.665473    16.144732    0.741867    5.793046    -19.646288    2.789150    -9.027679    1.881629    -3.459429    0.080816    -1.004528    -3.481150    2.328777    -12.761369    0.260389    9.476205    16.777901    1.169494    0.215331    -1.196146    0.326545    0.016174    -2.901863    0.256529    2.776825    7.173386    5.268096    0.839336    -3.953734    4.364786    2.559600    -5.797074    -8.657313    13.818623    0.000000    0.000000    0.000000    -8.622740    0.644905    -1.130995    3.862864    8.183802    -1.593700    4.685591    -8.204272    -10.631683    0.000000    0.000000    0.000000    
55.948364    87.734138    19.401047    0.563731    0.398791    87.132935    0.584456    0.129802    -0.821774    -2.192883    -4.655126    -0.910267    0.310059    13.577219    -5.612749    2.461476    7.826009    -5.668185    16.161167    0.738150    5.803361    -19.663788    2.786513    -9.031138    1.916504    -3.454317    0.085790    -1.145014    -3.478750    2.303186    -12.762719    0.247252    9.465978    16.783213    1.160700    0.228422    -1.191231    0.326310    0.024413    -2.938394    0.255491    2.774153    7.173465    5.263007    0.851599    -3.946509    4.374873    2.555302    -5.793451    -8.661910    13.810079    0.000000    0.000000    0.000000    -8.620697    0.644860    -1.136616    3.865534    8.179102    -1.600992    4.669165    -8.204216    -10.623652    0.000000    0.000000    0.000000    
55.947060    87.733879    19.403410    0.566406    0.398984    87.128204    0.562982    0.129041    -0.819479    -2.151296    -4.649715    -0.906157    0.240936    13.568218    -5.625184    2.520962    7.861944    -5.675764    16.121132    0.736941    5.799186    -19.653955    2.776930    -9.027070    1.888193    -3.496240    0.100535    -0.986854    -3.518202    2.362421    -12.791358    0.248498    9.461671    16.791176    1.170512    0.229390    -1.197376    0.314139    0.035340    -2.938478    0.243669    2.770200    7.174237    5.266963    0.856447    -3.947629    4.373293    2.539873    -5.787028    -8.660106    13.828060    0.000000    0.000000    0.000000    -8.619670    0.642534    -1.137483    3.865565    8.187258    -1.592555    4.682073    -8.205018    -10.626683    0.000000    0.000000    0.000000    
55.946232    87.732750    19.407146    0.572373    0.392916    87.127853    0.573759    0.136132    -0.822687    -2.170902    -4.650426    -0.910181    0.253503    13.590147    -5.632748    2.517823    7.832541    -5.683503    16.136614    0.743021    5.811665    -19.663771    2.761458    -9.039829    1.920573    -3.412830    0.115011    -1.105457    -3.437093    2.318902    -12.786884    0.255039    9.448542    16.800285    1.179461    0.250213    -1.204965    0.306247    0.036582    -2.935964    0.235378    2.778038    7.182819    5.275717    0.861964    -3.949250    4.370372    2.555007    -5.786757    -8.661299    13.807062    0.000000    0.000000    0.000000    -8.609856    0.645899    -1.138488    3.863428    8.187138    -1.595221    4.671988    -8.200343    -10.626704    0.000000    0.000000    0.000000    
55.943073    87.733711    19.407154    0.568054    0.397865    87.123474    0.568980    0.131730    -0.825985    -2.165148    -4.655926    -0.913405    0.233888    13.608331    -5.634636    2.525878    7.830005    -5.684288    16.107016    0.740809    5.818738    -19.647852    2.760654    -9.042634    1.885378    -3.325676    0.174060    -1.014349    -3.348093    2.211907    -12.801343    0.263917    9.466628    16.807291    1.140582    0.250519    -1.198045    0.316645    0.032620    -2.953028    0.245363    2.777207    7.172983    5.269009    0.865349    -3.942295    4.369847    2.567844    -5.767562    -8.648839    13.797377    0.000000    0.000000    0.000000    -8.613846    0.643620    -1.170398    3.858861    8.180734    -1.584900    4.673945    -8.197160    -10.600351    0.000000    0.000000    0.000000    
55.941582    87.735138    19.410212    0.569042    0.394666    87.120338    0.392668    0.276304    -0.737973    -1.897630    -4.949486    -0.819058    0.330325    13.786027    -5.754540    2.386502    7.797801    -5.820728    16.013777    0.838818    5.578695    -19.710030    2.719094    -9.025076    1.923784    -3.254254    0.198556    -1.014890    -3.277091    2.204118    -12.755141    0.403517    9.278549    16.674475    1.244416    0.258742    -1.214645    0.313022    0.052025    -2.937425    0.242348    2.780291    7.175523    5.272854    0.870376    -3.939271    4.362561    2.562364    -5.785784    -8.645341    13.808587    0.000000    0.000000    0.000000    -8.609384    0.648068    -1.147989    3.860729    8.171830    -1.590691    4.671523    -8.192870    -10.609665    0.000000    0.000000    0.000000    
55.941277    87.735039    19.413216    0.572125    0.395988    87.124832    0.570594    0.133810    -0.833727    -2.182492    -4.663672    -0.921919    0.219718    13.611624    -5.667268    2.557495    7.877366    -5.716624    16.113132    0.746872    5.830287    -19.652378    2.750218    -9.044555    1.898255    -3.239586    0.173372    -1.056037    -3.263291    2.263204    -12.788169    0.274537    9.472670    16.804749    1.120555    0.267470    -1.196335    0.343667    0.025021    -2.935043    0.272306    2.796433    7.174927    5.277936    0.860196    -3.936030    4.359313    2.555854    -5.803899    -8.650900    13.816261    0.000000    0.000000    0.000000    -8.605321    0.654948    -1.144150    3.857827    8.167141    -1.607203    4.684939    -8.197914    -10.599793    0.000000    0.000000    0.000000    
